<?xml version="1.0" encoding="UTF-8"?>
<svg id="Bek" xmlns="http://www.w3.org/2000/svg" viewBox="0 0 1920 1080">
  <defs>
    <style>
      .cls-1 {
        fill: #6cbe54;
        stroke: #6cbe54;
      }

      .cls-1, .cls-2 {
        stroke-width: 5px;
      }

      .cls-1, .cls-2, .cls-3, .cls-4, .cls-5, .cls-6, .cls-7 {
        stroke-miterlimit: 10;
      }

      .cls-8, .cls-2, .cls-4, .cls-5, .cls-6 {
        fill: #fff;
      }

      .cls-9 {
        stroke: #010101;
        stroke-linecap: round;
        stroke-linejoin: round;
        stroke-width: .5px;
      }

      .cls-9, .cls-7 {
        fill: none;
      }

      .cls-2, .cls-3, .cls-4, .cls-5, .cls-7 {
        stroke: #272425;
      }

      .cls-3 {
        fill: #272425;
      }

      .cls-4, .cls-7 {
        stroke-width: 8px;
      }

      .cls-5 {
        stroke-width: 4px;
      }

      .cls-6 {
        stroke: #fff;
        stroke-width: 7px;
      }

      .cls-10 {
        fill: #6bbe54;
      }
    </style>
  </defs>
  <path class="cls-2" d="m893.8014,833.542c-3.34546.8439-59.64558-14.46684-86.83119-28.66243-39.84409-20.76595-70.34502-36.1671-83.39531-64.28703-12.11598-26.07045,2.381-240.9385,4.61131-269.48038.03014-.57536.18084-2.33339.36167-4.73072,1.65766-21.79966,12.2064-41.93718,29.23508-54.24344,9.37331-6.74447,20.64539-12.33823,33.0929-13.29715,18.14383-1.40643,35.89585,4.28322,50.15172,15.43876,1.50696,1.24661,3.10434,2.55715,4.73186,3.86768,11.3625,9.0459,31.16399,16.20591,40.56744,4.9225,12.62835-15.11912,25.04572-36.40735,71.55059-38.35718,50.51339.57536,65.85427,31.54878,71.9424,38.93254,9.37331,11.31537,32.00789,3.54804,43.34025-5.49786,1.62752-1.31054,3.2249-2.62107,4.73186-3.86768,14.25587-11.15555,32.00789-16.84519,50.15172-15.43876,12.44751.95893,23.71959,6.55268,33.0929,13.29715,17.02868,12.30626,27.57742,32.44378,29.23508,54.24344.24111,3.00465.42195,5.21018.45209,5.84947,2.86323,39.63575,16.51631,236.15236,4.52089,262.55488-13.44211,29.63092-43.55122,46.15647-83.39531,68.17988-27.18561,15.05519-52.38202,26.53038-73.17811,31.13324-20.73581,5.4552-56.6618,7.49026-76.16189,7.46012-39.27145-.03014-73.99187-8.64997-73.99187-8.74038"/>
  <rect class="cls-3" x="876.17177" y="446.59234" width="166.5571" height="288.06152" rx="26.11459" ry="26.11459" transform="translate(405.14108 -390.25499) rotate(28.91272)"/>
  <rect class="cls-8" x="893.03441" y="463.92372" width="139.33152" height="235.96583" rx="15.86993" ry="15.86993" transform="translate(419.93068 -403.38938) rotate(30)"/>
  <path class="cls-1" d="m862.32953,581.88103h134.41252v101.11946c0,7.70834-6.25819,13.96653-13.96653,13.96653h-106.47946c-7.70834,0-13.96653-6.25819-13.96653-13.96653v-101.11946h0Z" transform="translate(444.24619 -379.10132) rotate(30)"/>
  <g>
    <path class="cls-1" d="m957.30762,472.70703c3.04883.60352,7.47754,2.24707,11.62793,4.55273,5.91992,3.28906,8.86328,6.96777,9.75391,12.09473.87891,4.03027-.00586,8.98828-3.07129,14.50586-3.75977,6.76758-9.9834,11.07617-16.31641,11.09863l-.11621.20898c3.42969,4.08496,5.4668,12.4375-.31738,22.84766-3.35449,6.03906-7.46387,9.75-11.68555,11.90039-5.68555,2.7002-12.01172,1.91016-19.49707-2.24805-4.08203-2.26758-6.98047-4.42285-8.72266-5.93652l38.34473-69.02441Zm-28.72363,65.65039c.9834.95508,2.62598,2.00391,4.73535,3.17578,6.12402,3.40234,13.67969,3.10449,19.34766-7.09863,5.32129-9.57812,2.14355-16.52051-4.32031-20.11133l-4.89844-2.72168-14.86426,26.75586Zm18.68066-33.62695l5.375,2.98633c6.25977,3.47754,12.71094.52148,16.4707-6.24609,4.56836-8.22461,2.27832-13.71973-3.70898-17.0459-2.72168-1.51172-4.45996-2.06934-5.58594-2.28613l-12.55078,22.5918Z"/>
    <path class="cls-1" d="m998.09082,542.91211l-17.82617-9.9043-14.05371,25.29883,19.86719,11.03711-4.22266,7.59961-25.78711-14.32617,38.98145-70.16895,24.7666,13.75879-4.22168,7.60059-18.84668-10.46973-12.31934,22.1748,17.82617,9.90332-4.16406,7.49609Z"/>
    <path class="cls-1" d="m1028.86719,511.23535l5.91992,3.28906-18.79688,33.83496.2041.11328c2.72852-2.02637,5.3418-3.84473,7.77148-5.49219l28.64844-18.55273,7.34863,4.08203-33.14355,20.55176-4.5459,50.33496-7.00781-3.89258,4.03809-42.85156-8.63379,5.28516-14.86426,26.75586-5.91992-3.28906,38.98145-70.16895Z"/>
  </g>
  <g>
    <path class="cls-6" d="m865.28027,631.80566c.74316,3.32617,2.60645,6.78809,5.65137,8.48047,4.5166,2.50879,9.57812-.38379,13.08203-6.69238,3.24609-5.84375,3.27344-10.19727.45898-16.00977-3.57324-6.71973-4.08789-13.92383.80762-22.73633,5.41113-9.73926,13.8457-14.52148,20.49414-10.82715,3.50195,1.94531,5.21582,4.83887,5.8623,7.26172l-4.87598,5.90918c-.49902-1.7334-1.75293-4.85742-4.84863-6.57715-4.66895-2.59473-9.28027,1.52051-11.65039,5.78809-3.24609,5.84277-2.76172,9.875.10254,15.83594,3.51855,7.2959,3.62793,14.0332-1.47363,23.21582-5.3584,9.64746-13.9043,15.82324-21.97363,11.34082-3.29883-1.83203-5.9248-5.59668-6.51465-8.83789l4.87793-6.15137Z"/>
    <path class="cls-6" d="m932.66406,640.35059c-11.95508,21.51953-25.44824,28.9541-34.17773,24.10449-9.03516-5.01953-8.26758-21.34473,2.24414-40.26758,11.02734-19.84961,24.99219-29.08594,34.12695-24.01074,9.33887,5.18848,8.1123,21.62207-2.19336,40.17383Zm-27.11035-13.72656c-7.4209,13.35742-10.10938,27.52246-3.15625,31.38574,7.00391,3.89062,17.50879-5.69043,25.39258-19.88281,6.90527-12.42871,10.56543-27.38867,3.20605-31.47754-7.30859-4.05957-17.81641,6.24609-25.44238,19.97461Z"/>
    <path class="cls-6" d="m955.66113,613.06836l18.42383,10.23633-3.76172,6.77051-14.00781-7.78223-11.54297,20.77832,12.94238,7.18945-3.70996,6.67871-12.94238-7.18945-15.7168,28.29102-4.41602-2.45312,34.73145-62.51953Z"/>
    <path class="cls-6" d="m983.31641,637.41504l-10.4043-5.78027,3.81348-6.86328,25.32617,14.06836-3.81348,6.86426-10.45605-5.80859-30.91797,55.65527-4.46582-2.48145,30.91797-55.6543Z"/>
  </g>
  <path class="cls-10" d="m895.8064,822.00215c12.68863-28.60215-160.25041-92.64807-175.80227-207.96085-3.34546-24.59363.93432-48.22281.9946-48.22281.12056,0-1.71794,161.72723-1.71794,161.72723h0s5.30451,18.14383,13.14071,28.75285c9.19247,12.50779,22.75514,15.64227,31.76677,20.49469,56.42068,30.22967,98.16159,53.82855,120.37419,52.89423,7.47456-.33153,9.7671-4.37004,11.24393-7.68535Z"/>
  <path class="cls-10" d="m1023.59684,825.55858c-12.68863-28.60215,159.87052-93.30222,175.42237-208.61501,3.34546-24.59363-3.51625-43.62041-3.93002-48.38241-.01044-.1201,6.36314,156.35001,6.36314,156.35001l-.90793,5.55807c-1.26585,2.65225-9.41917,15.01037-17.0444,25.19743-9.31303,12.41737-22.27177,21.12602-27.62198,23.86927-56.95807,29.20453-102.59402,55.06442-124.80665,54.1301-7.47453-.33153-5.99771-4.79214-7.47453-8.10746Z"/>
  <line class="cls-9" x1="888.5127" y1="832.03852" x2="888.5127" y2="832.06866"/>
  <line class="cls-9" x1="855.32939" y1="589.65864" x2="855.60064" y2="591.58755"/>
  <line class="cls-7" x1="894.11291" y1="833.3745" x2="903.125" y2="724.05294"/>
  <circle class="cls-4" cx="959.45032" cy="299" r="58.84359"/>
  <path class="cls-7" d="m1027.28765,835.77871l-10.28765-105.77871c-4.70837-64.03383,30.38881-112.41782,30.38881-112.41782"/>
  <rect class="cls-7" x="874.07081" y="446.02637" width="168.7096" height="288.06152" rx="31.27853" ry="31.27853" transform="translate(404.73973 -389.83011) rotate(28.91272)"/>
  <rect class="cls-5" x="877.44595" y="694.99243" width="34.61584" height="19.44621" rx="9.72309" ry="9.72309" transform="translate(452.23817 -344.75496) rotate(28.91272)"/>
  <rect class="cls-2" x="1057.94295" y="564.24149" width="24.55393" height="9.83194" rx="4.91596" ry="4.91596" transform="translate(2085.86247 -92.49283) rotate(118.91272)"/>
  <path class="cls-4" d="m1046.5,661s27.5-25.2826,30-28.1413,8.09477-42.94596-22.73129-34.67116-36.26871,38.26091-30.76871,45.78669,16.5,18.52577,23.5,17.02577Z"/>
  <path class="cls-4" d="m879.96034,503.4856s-24.92476,18.11195-19.58519,34.17345c5.33956,16.06149,19.81751,17.63771,34.72363,7.31988,14.90612-10.31782,28.25832-56.00819-15.13844-41.49333Z"/>
  <path class="cls-4" d="m854.10682,549.14722s-25.91717,19.0462-20.26782,36.06991,20.7627,18.76235,36.26483,7.91576c15.50213-10.84659,29.2106-59.1351-15.997-43.98567Z"/>
  <path class="cls-4" d="m828.02678,595.05971s-23.02764,17.28374-17.84352,32.95617,18.71234,17.38607,32.49037,7.54895c13.77803-9.83712,25.66103-54.06148-14.64685-40.50512Z"/>
  <path class="cls-4" d="m1044.5,661s-19.60215.72924-26.38145,34.39591"/>
  <line class="cls-4" x1="1028.0548" y1="655.89764" x2="1031.97708" y2="664.5"/>
  <path class="cls-7" d="m893.69666,832.792c-3.34546.8439-59.64558-14.46684-86.83119-28.66243-39.84409-20.76595-70.34502-36.1671-83.39531-64.28703-12.11598-26.07045,2.381-240.9385,4.61131-269.48038.03014-.57536.18084-2.33339.36167-4.73072,1.65766-21.79966,12.2064-41.93718,29.23508-54.24344,9.37331-6.74447,20.64539-12.33823,33.0929-13.29715,18.14383-1.40643,35.89585,4.28322,50.15172,15.43876,1.50696,1.24661,3.10434,2.55715,4.73186,3.86768,11.3625,9.0459,31.16399,16.20591,40.56744,4.9225,12.62835-15.11912,25.04572-36.40735,71.55059-38.35718,50.51339.57536,65.85427,31.54878,71.9424,38.93254,9.37331,11.31537,32.00789,3.54804,43.34025-5.49786,1.62752-1.31054,3.2249-2.62107,4.73186-3.86768,14.25587-11.15555,32.00789-16.84519,50.15172-15.43876,12.44751.95893,23.71959,6.55268,33.0929,13.29715,17.02868,12.30626,27.57742,32.44378,29.23508,54.24344.24111,3.00465.42195,5.21018.45209,5.84947,2.86323,39.63575,16.51631,236.15236,4.52089,262.55488-13.44211,29.63092-43.55122,46.15647-83.39531,68.17988-27.18561,15.05519-52.38202,26.53038-73.17811,31.13324-20.73581,5.4552-56.6618,7.49026-76.16189,7.46012-39.27145-.03014-73.99187-8.64997-73.99187-8.74038"/>
  <circle class="cls-4" cx="796.67864" cy="328.76157" r="51.23843"/>
  <circle class="cls-4" cx="1121.81186" cy="328.76157" r="51.23843"/>
</svg>